<svg xmlns="http://www.w3.org/2000/svg" viewBox="0 0 64 64" fill="none">
  <defs>
    <linearGradient id="signlink-grad" x1="0%" y1="0%" x2="100%" y2="100%">
      <stop offset="0%" stop-color="#6366f1" />
      <stop offset="100%" stop-color="#4338ca" />
    </linearGradient>
  </defs>
  <rect width="64" height="64" rx="16" fill="url(#signlink-grad)" />
  <path d="M32 14c-1.6 0-3 1.3-3 3v12.2c-.7-.5-1.5-.8-2.4-.8-2.2 0-4 1.8-4 4v.2c0 .4.1.8.2 1.2l2.4 9.6c1.6 6.4 7.3 10.6 13.9 10.6 7.7 0 13.9-6.2 13.9-13.9V32c0-2.2-1.8-4-4-4-1 0-1.8.4-2.5 1V21c0-1.7-1.3-3-3-3s-3 1.3-3 3v6.3c-.6-.8-1.5-1.3-2.6-1.3s-2 .5-2.6 1.3V17c0-1.7-1.3-3-3-3z" fill="#ffffff" />
  <circle cx="21" cy="20" r="3" fill="#a5b4fc" />
  <circle cx="43" cy="18" r="2.5" fill="#38bdf8" />
</svg>
